<svg xmlns="http://www.w3.org/2000/svg" viewBox="0 0 512 512"><linearGradient id="a" gradientUnits="userSpaceOnUse" x1="256" y1="2" x2="256" y2="514" gradientTransform="matrix(1 0 0 -1 0 514)"><stop offset=".05" stop-color="#ffd530"/><stop offset="1" stop-color="#fe5140"/></linearGradient><circle fill="url(#a)" cx="256" cy="256" r="256"/><path d="M176.7 409.6c13.2-3.5 26.4-5.1 40-6.6 13.2-1 26.4-1.5 40-2 13.2 0 26.4.5 40 1.5 13.2 1 26.4 3 40 6.6 4.1 1 6.6 5.1 5.6 9.6-.5 2.5-3 5.1-5.6 5.6-13.2 3.5-26.4 5.1-40 6.6-13.2 1-26.4 1.5-40 1.5-13.2 0-26.4-.5-40-2-13.2-1.5-26.4-3-40-6.6-4.1-1-6.6-5.1-5.6-9.1.5-2.6 3-4.6 5.6-5.1z"/><circle cx="140.2" cy="325.4" r="23.8"/><path d="M209.1 320.4c-92.8 0-153.6-34.5-156.1-36-6.6-3.5-8.6-12.2-5.1-18.2 3.5-6.6 11.7-8.6 18.2-5.1 1 .5 62.4 35 153.6 32.4 7.1 0 13.7 5.6 13.7 13.2s-5.6 13.7-13.2 13.7h-11.1z"/><circle cx="372.3" cy="325.4" r="23.8"/><path d="M303.4 320.4h-11.7c-7.6 0-13.2-6.6-13.2-13.7 0-7.6 6.6-13.2 13.7-13.2 91.2 3 153.1-31.9 153.6-32.4 6.6-3.5 14.7-1.5 18.2 5.1s1.5 14.7-5.1 18.2c-1.9 1.5-62.2 36-155.5 36z"/></svg>