<svg id="Слой_1" xmlns="http://www.w3.org/2000/svg" viewBox="0 0 512 512"><path d="M231.5 474.1c6.4 6.4 14.9 9.9 23.9 9.9 8.9 0 17.6-3.7 23.9-9.9l187.6-187.6c28.5-28.5 44.2-66.4 44.3-106.6 0-40.3-15.7-78.2-44.2-106.7C438.5 44.7 400.7 29 360.4 29c-39.6 0-76.8 15.1-105.1 42.7-28.4-27.7-65.8-42.9-105.5-42.9-40.2 0-78 15.7-106.5 44.1C14.8 101.4-.8 139.3-.8 179.6c0 40.2 15.8 78.1 44.3 106.6l188 187.9z"/><path fill="currentColor" d="M61.5 91c23.6-23.6 55-36.6 88.4-36.6 33.4 0 64.9 13.1 88.6 36.8l7.7 7.7c2.4 2.4 5.6 3.8 9.1 3.8 3.3 0 6.7-1.4 9.1-3.8l7.5-7.5c23.7-23.7 55.1-36.8 88.6-36.8 33.4 0 64.8 13.1 88.4 36.6 23.7 23.7 36.6 55.1 36.6 88.5s-13.1 64.8-36.8 88.5L261.2 456c-3 3-8.6 3-11.7 0L61.6 268.1c-23.7-23.7-36.8-55.1-36.8-88.5S37.9 114.7 61.5 91z"/></svg>