<svg xmlns="http://www.w3.org/2000/svg" viewBox="0 0 512 512"><circle fill="#FFD530" cx="256" cy="252.2" r="252.2"/><path d="M193.1 415.5c-3 0-5.5-1-8-3-5.5-4.5-6.5-13-2-18.5 18-23 44.9-36 74.4-36 28.5 0 54.9 12.5 72.9 34.5 4.5 5.5 4 14-2 18.5-5.5 4.5-14 4-18.5-2-13-15.5-32-24.5-52.4-24.5-21 0-40.5 9.5-53.4 26-3.5 3.5-7 5-11 5zm-33.5-214.7c2-1.5 3.5-3.5 4-5.5 1.5-5.5-1.5-11-7-12.5-18-5-37-1.5-51.9 9.5-8 6-15 13.5-19 22.5-2.5 5-.5 11 4.5 14 5 2.5 11 .5 14-4.5 3-6 7.5-11 13-15 10-7 22.5-9.5 34.5-6 2.4 0 5.4-1 7.9-2.5z"/><ellipse cx="142.1" cy="271.7" rx="32" ry="34"/><path d="M352.4 200.8c-2-1.5-3.5-3.5-4-5.5-1.5-5.5 1.5-11 7-12.5 18-5 37-1.5 51.9 9.5 8 6 15 13.5 19 22.5 2.5 5 .5 11-4.5 14-5 2.5-11 .5-14-4.5-3-6-7.5-11-13-15-10-7-22.5-9.5-34.5-6-2.4 0-5.4-1-7.9-2.5z"/><ellipse cx="369.9" cy="271.7" rx="32" ry="34"/><path fill="#4678FD" d="M395.3 392.5c2.5-5.5 10-5.5 12.5 0l28.5 57.9c10 16 8 36.5-5.5 49.9-15.5 15.5-41 15.5-56.9 0-13.5-13.5-15.5-34-5.5-49.9l26.9-57.9z"/></svg>