<svg id="Слой_1" xmlns="http://www.w3.org/2000/svg" viewBox="0 0 512 512"><circle fill="#FFD530" cx="256" cy="256" r="256"/><path d="M99.9 195.6c-4.6 0-9.6-2.5-11.7-7.1-3.5-6.6-1-14.7 5.6-18.2l42.6-22.8-43.1-21.8c-6.6-3.5-9.1-11.7-6.1-18.2 3.5-6.6 11.7-9.1 18.2-6.1l65.9 33.5c4.6 2 7.1 6.6 7.1 11.7s-2.5 9.6-7.1 12.2L105.9 193c-1.5 2-4 2.6-6 2.6zm312.2 0c-2 0-4.1-.5-6.1-1.5l-65.4-34.5c-4.6-2.5-7.1-7.1-7.1-12.2s3-9.6 7.1-11.7l65.9-33.5c6.6-3.5 14.7-.5 18.2 6.1s.5 14.7-6.1 18.2l-43.1 21.8 42.6 22.8c6.6 3.5 9.1 11.7 5.6 18.2-2.4 3.7-7 6.3-11.6 6.3zM83.6 245.2C86.7 338 162.7 412 256 412s169.3-74 172.4-166.8H83.6z"/><path fill="#FE3957" d="M256 412c64.9 0 121.8-36.3 151-89.3-45.4-20.5-95.4-32.1-148.2-32.1-54.6 0-106.5 12.1-152.8 34 29.6 52.5 85.6 87.4 150 87.4z"/></svg>