<svg xmlns="http://www.w3.org/2000/svg" viewBox="0 0 512 512"><circle fill="#FFD530" cx="256" cy="256" r="256"/><ellipse cx="256.3" cy="360.7" rx="75.5" ry="104.9"/><ellipse transform="rotate(-82.455 134.942 191.38)" cx="134.9" cy="191.4" rx="52.7" ry="36.5"/><path d="M101.6 86.4c-2.5 0-4.6-1-6.6-2.5-4.6-3.5-5.1-10.1-1.5-14.7 12.2-14.7 29.4-22.8 48.7-22.8 10.1 0 20.3 2.5 28.9 7.1 5.1 2.5 7.1 9.1 4.6 14.2s-9.1 7.1-14.2 4.6c-6.1-3-12.7-4.6-19.3-4.6-12.7 0-24.3 5.6-32.4 15.2-2.1 2-5.1 3.5-8.2 3.5z"/><ellipse transform="rotate(-7.545 377.37 191.32)" cx="377.4" cy="191.3" rx="36.5" ry="52.7"/><path d="M410.4 86.4c2.5 0 4.6-1 6.6-2.5 4.6-3.5 5.1-10.1 1.5-14.7-12.2-14.7-29.4-22.8-48.7-22.8-10.1 0-20.3 2.5-28.9 7.1-5.1 2.5-7.1 9.1-4.6 14.2s9.1 7.1 14.2 4.6c6.1-3 12.7-4.6 19.3-4.6 12.7 0 24.3 5.6 32.4 15.2 2.1 2 5.1 3.5 8.2 3.5z"/></svg>