<svg xmlns="http://www.w3.org/2000/svg" viewBox="0 0 512 512"><circle fill="#4678FD" cx="256" cy="256" r="256"/><path d="M192.8 396.2h-68.4c-2.5 0-4.5-2-4.5-4.5v-145c0-2.5 2-4.5 4.5-4.5h68.4c2.5 0 4.5 2 4.5 4.5v145c0 2.5-2 4.5-4.5 4.5zM394 282.6c1.1-11.1-6.6-20.6-16.9-22.6 11.9-3.1 20-15.5 15.9-29-2.8-9.4-11.8-15.6-21.6-15.6h-72.6l13.8-48.2c2.3-8.2 3.5-16.8 3.5-25.3v-6.6c0-15.4-12.7-27.8-28.2-27.3-8.6.3-15.4 7.6-15.4 16.2v17.3c0 8.5-2.8 16.7-7.9 23.5l-41.3 53.7c-6.3 8.3-9.8 18.4-9.8 28.8V363c0 7.4 6 13.4 13.4 13.4l138.5-.2c9.4 0 16.9-7.6 16.9-16.9v-2c0-7.5-4.9-13.9-11.7-16.1 10.1-1 18-9.5 18-19.8 0-10.1-7.6-18.5-17.3-19.7h1c11.1-.4 20.7-8.3 21.7-19.1z" fill="#FFF"/></svg>